<?xml version="1.0" encoding="UTF-8"?>
<svg id="Layer_2" data-name="Layer 2" xmlns="http://www.w3.org/2000/svg" viewBox="0 0 506.14 778.64">
  <defs>
    <style>
      .cls-1 {
        fill: #080823;
      }

      .cls-1, .cls-2, .cls-3, .cls-4, .cls-5, .cls-6, .cls-7, .cls-8, .cls-9, .cls-10, .cls-11, .cls-12 {
        stroke-width: 0px;
      }

      .cls-2 {
        fill: #e19f00;
      }

      .cls-3 {
        fill: #09092b;
      }

      .cls-4 {
        fill: #1b1541;
      }

      .cls-5 {
        fill: #1b1548;
      }

      .cls-6 {
        fill: #292956;
      }

      .cls-7 {
        fill: #16163d;
      }

      .cls-8 {
        fill: #110e2d;
      }

      .cls-9 {
        fill: #141135;
      }

      .cls-10 {
        fill: #110f30;
      }

      .cls-11 {
        fill: #1c1544;
      }

      .cls-12 {
        fill: #110e2b;
      }
    </style>
  </defs>
  <g id="Layer_1-2" data-name="Layer 1">
    <g>
      <g>
        <path class="cls-1" d="m126.3,189.83l-28.61-6.08c4.6-17.46,12.45-35.8,25.65-51.41,18.89,3.39,45.98,9.25,45.98,9.25l-37.19-18.46c5.93-5.5,12.71-10.48,20.46-14.75,47.07-25.93,90.44-20.19,114.72-13.16-73.86-27.14-183.01,9.57-183.01,9.57,0,0,13.17-27.24,49.44-42.62l34.3,5.11-21.1-9.79c4.49-1.32,9.23-2.47,14.29-3.36l23.55,12.71-13.34-14.09c5.29-.54,10.82-.87,16.69-.86,41.14.07,65.77,14.3,79.9,27.79-1.88-8.64-2.33-19.11.25-31.48,2.63-12.67,8.21-22.07,14.7-29.04l13.88,12.76-8.79-17.62c14.04-11.88,29.81-14.31,29.81-14.31,0,0-20.11,48.71-26.98,85.32,2.97-10.2,8.94-23.37,20.77-38.49,2.9-3.7,6.4-7.13,10.36-10.28l31.71,11.61-21.4-18.57c5.89-3.35,12.42-6.17,19.36-8.4l43.46,14.27-26.58-18.34c9.01-1.51,18.4-2.07,27.8-1.55l5.58,11.61-.28-11.2c23.5,2.34,46.67,11.59,63.75,29.88,0,0-114.72,11.8-169.62,55.33,21.68-10.09,71.07-28.22,119.13-11.79,1.22.42,2.41.87,3.61,1.31l-1.26,24.37,10.75-20.56c2.87,1.26,5.68,2.59,8.43,3.98l-16.54,23.77,26.36-18.33c19.75,11.88,35.31,27.24,45.6,44.1l-27.97,10.64,32.51-2.45c9.28,18.68,12.23,38.72,7.45,57.62,0,0-93.63-89.75-174.54-106.5,16.11,5.24,34.78,16.9,52.92,41.02l-90.75-38.36c72.11,144.62,95.18,496.58,95.18,496.58l-45.69-6.81c34.13-229.02-52.25-470.61-58.89-488.72-46.99,56.79-44.57,182.13-45.73,181.96-.71-.11-18.05-29.7-23.31-65.87l12.13-25.2-13.52,10.56c-.16-3.85-.15-7.73.05-11.63l9.43-5.04-8.76-2.72c1.88-15.2,7.07-30.35,17.41-43.98,19.66-25.92,33.2-37.41,42.16-42.2-85.75,27.2-179.86,141.94-179.86,141.94,0,0-2.77-24.75,3.15-54.54l31.04-4.49Z"/>
        <path class="cls-1" d="m299.78,287.58l-13.45-7.32c4.92-8.08,11.59-16.11,20.55-21.98,8.98,4.52,21.7,11.5,21.7,11.5l-15.92-14.81c3.8-1.87,7.94-3.37,12.47-4.35,27.5-5.99,48.41,3.36,59.55,10.52-33.02-24.64-93.29-22.51-93.29-22.51,0,0,10.67-11.71,31.18-14.02l16.46,7.69-9.13-8.06c2.45,0,5,.14,7.68.45l9.92,9.89-4.59-9.06c2.74.52,5.56,1.18,8.51,2.06,20.64,6.17,30.88,16.99,35.96,25.87.34-4.62,1.68-9.94,4.82-15.76,3.21-5.97,7.41-9.85,11.71-12.38l5.06,8.47-1.78-10.16c8.82-3.87,17.1-2.73,17.1-2.73,0,0-17.36,21.45-26.28,38.8,3.01-4.67,7.98-10.4,16.17-16.22,2.01-1.43,4.28-2.62,6.74-3.61l14.19,10.56-7.97-12.51c3.46-.8,7.15-1.24,10.97-1.33l19.69,13.65-10.61-13.18c4.75.58,9.54,1.71,14.19,3.37l1.07,6.66,1.53-5.66c11.45,4.68,21.7,12.78,27.54,24.51,0,0-59.35-11.19-93.4,2.46,12.39-1.83,39.88-3.56,61.56,11.86.55.39,1.08.79,1.61,1.19l-4.27,12.05,8.47-8.72c1.26,1.06,2.47,2.15,3.64,3.25l-11.85,9.46,15.97-5.26c8.14,8.91,13.66,18.94,16.31,28.94l-15.63,1.17,16.68,3.62c1.87,10.76.36,21.26-4.86,30.03,0,0-33.6-59.02-71.72-79.51,7.3,5.03,14.94,13.68,20.44,28.49l-39.83-32.8c14.62,83.35-26.33,263.46-26.33,263.46l-21.92-10.24c51.31-109.87,44-244.02,43.37-254.11-32.06,21.49-49.55,84.77-50.11,84.51-.34-.16-4.63-17.6-1.87-36.54l9.85-10.84-8.36,3.28c.49-1.95,1.08-3.9,1.76-5.83l5.49-1.12-3.99-2.67c3.21-7.35,8.08-14.18,15.3-19.48,13.74-10.07,22.25-13.82,27.46-14.89-47.1.86-111.47,44.41-111.47,44.41,0,0,2.3-12.84,9.72-26.91l16.25,2.38Z"/>
      </g>
      <g>
        <g>
          <g>
            <polygon class="cls-9" points="78.96 194.17 163.48 194.17 163.48 239.41 197.44 239.41 197.44 397.67 208.84 397.67 208.84 430.45 214.15 458.88 214.15 465.84 219.71 465.84 219.71 517.94 219.71 525.8 322.71 525.8 322.71 662.63 434.19 662.63 434.19 778.64 322.71 778.64 322.68 778.64 219.71 778.64 78.26 778.64 78.96 194.17"/>
            <g>
              <rect class="cls-10" x="219.71" y="525.8" width="4.13" height="252.84" transform="translate(443.55 1304.44) rotate(180)"/>
              <rect class="cls-5" x="322.71" y="662.63" width="4.25" height="116" transform="translate(649.67 1441.27) rotate(180)"/>
            </g>
          </g>
          <g>
            <g>
              <path class="cls-12" d="m84.9,51.71c2.57,7.8,13.02,7.62,10.54,12.76-2.48,5.14-8.4,3.54-8.4,6.02h13.37s4.78-.18,4.78,4.08-4.43,3.54-4.43,3.54c0,0,3.54,2.13,1.77,7.09,0,0-5.44,1.98-8.83,8.17,0,.01,0,.03-.02.04,3.56-5.87,9.98-9.8,17.34-9.8,11.2,0,20.29,9.08,20.29,20.29,0,8.4-5.11,15.61-12.38,18.69h0s-6.3,3.19-4.88,10.1c1.3,6.35,8.08,4.12,11.05-4.71.14-.85.37-1.68.7-2.46,0,0,0,0,0-.01h0c1.71-4.11,5.77-7.01,10.51-7.01,6.28,0,11.38,5.09,11.38,11.38,0,3.34-1.45,6.34-3.74,8.42,0,0-4.83,5.19,0,7.5,4.83,2.3,10.5,3.37,15.11-3.54,4.61-6.91,9.04-4.82,10.28-.99,0,0,3.54-3.44,9.21-3.08,5.67.35,8.68-10.45,0-12.67,0,0,4.78-5.76,13.29-1.33,8.5,4.43,6.38,14.49,0,17.08-6.38,2.59-9.21,4.18-9.21,9.67l-91.07.35v4.96l-9.75,4.61v4.08h-3.54V42.86s4.08,1.06,6.64,8.86Z"/>
              <path class="cls-7" d="m91.54,151.29l91.07-.35s5.67,1.06,5.67-2.13c0,0-.71-1.86,1.86-1.86s2.57,4.87,2.57,10.37v16.66s-2.83-6.91-9.92-6.91-10.1,13.11-10.1,13.11c0,0-7.26-.35-9.21,5.32h-84.52l-.71-20.55h3.54v-4.08l9.75-4.61v-4.96Z"/>
              <g>
                <polygon class="cls-4" points="103.71 160.03 113.4 160.03 113.4 171.84 108.55 174.44 108.55 172.08 105.36 172.08 105.36 174.44 103.71 174.44 102.06 174.44 102.06 172.08 98.87 172.08 98.87 174.44 94.02 171.84 94.02 160.03 103.71 160.03"/>
                <polygon class="cls-6" points="134.61 160.03 144.3 160.03 144.3 171.84 139.45 174.44 139.45 172.08 136.26 172.08 136.26 174.44 134.61 174.44 132.96 174.44 132.96 172.08 129.77 172.08 129.77 174.44 124.92 171.84 124.92 160.03 134.61 160.03"/>
              </g>
              <polygon class="cls-11" points="78.96 185.49 163.48 185.49 163.48 199.49 158.16 199.49 153.91 194.17 78.96 194.17 78.96 185.49"/>
            </g>
            <g>
              <rect class="cls-7" x="78.96" y="431.95" width="140.74" height="26.93" transform="translate(298.67 890.83) rotate(180)"/>
              <rect class="cls-11" x="78.96" y="458.88" width="135.19" height="6.95" transform="translate(293.12 924.72) rotate(180)"/>
            </g>
            <g>
              <g>
                <path class="cls-8" d="m131.84,471.08s2.5-.32,5.56,2.42c3.06,2.74,7.58,4.84,8.79,3.14s.06-4.65-3.63-3.3c-3.69,1.34-4.92-5.32-.89-6.93,4.03-1.61,9.59-.73,11.69,3.3,2.1,4.03,1.93,12.73-6.37,18.46-8.3,5.72-15.15,6.45-15.15,10.88v-27.97Z"/>
                <path class="cls-8" d="m131.84,496.12s2.5-.32,5.56,2.42c3.06,2.74,7.58,4.84,8.79,3.14s.06-4.65-3.63-3.3c-3.69,1.34-4.92-5.32-.89-6.93,4.03-1.61,9.59-.73,11.69,3.3,2.1,4.03,1.93,12.73-6.37,18.46-8.3,5.72-15.15,6.45-15.15,10.88v-27.97Z"/>
                <path class="cls-8" d="m131.84,519.36s2.5-.32,5.56,2.42c3.06,2.74,7.58,4.84,8.79,3.14,1.21-1.69.06-4.65-3.63-3.3s-4.92-5.32-.89-6.93c4.03-1.61,9.59-.73,11.69,3.3,2.1,4.03,1.93,12.73-6.37,18.46-8.3,5.72-15.15,6.45-15.15,10.88v-27.97Z"/>
                <path class="cls-8" d="m131.84,544.4s2.5-.32,5.56,2.42c3.06,2.74,7.58,4.84,8.79,3.14,1.21-1.69.06-4.65-3.63-3.3s-4.92-5.32-.89-6.93c4.03-1.61,9.59-.73,11.69,3.3,2.1,4.03,1.93,12.73-6.37,18.46-8.3,5.72-15.15,6.45-15.15,10.88v-27.97Z"/>
                <path class="cls-8" d="m131.84,569.76s2.5-.32,5.56,2.42c3.06,2.74,7.58,4.84,8.79,3.14s.06-4.65-3.63-3.3c-3.69,1.34-4.92-5.32-.89-6.93,4.03-1.61,9.59-.73,11.69,3.3,2.1,4.03,1.93,12.73-6.37,18.46-8.3,5.72-15.15,6.45-15.15,10.88v-27.97Z"/>
                <path class="cls-8" d="m131.84,594.8s2.5-.32,5.56,2.42c3.06,2.74,7.58,4.84,8.79,3.14s.06-4.65-3.63-3.3c-3.69,1.34-4.92-5.32-.89-6.93,4.03-1.61,9.59-.73,11.69,3.3,2.1,4.03,1.93,12.73-6.37,18.46-8.3,5.72-15.15,6.45-15.15,10.88v-27.97Z"/>
                <path class="cls-8" d="m131.84,619.1s2.5-.32,5.56,2.42c3.06,2.74,7.58,4.84,8.79,3.14s.06-4.65-3.63-3.3c-3.69,1.34-4.92-5.32-.89-6.93,4.03-1.61,9.59-.73,11.69,3.3,2.1,4.03,1.93,12.73-6.37,18.46-8.3,5.72-15.15,6.45-15.15,10.88v-27.97Z"/>
                <path class="cls-8" d="m131.84,644.14s2.5-.32,5.56,2.42c3.06,2.74,7.58,4.84,8.79,3.14,1.21-1.69.06-4.65-3.63-3.3-3.69,1.34-4.92-5.32-.89-6.93,4.03-1.61,9.59-.73,11.69,3.3,2.1,4.03,1.93,12.73-6.37,18.46-8.3,5.72-15.15,6.45-15.15,10.88v-27.97Z"/>
                <path class="cls-8" d="m131.84,669.66s2.5-.32,5.56,2.42c3.06,2.74,7.58,4.84,8.79,3.14s.06-4.65-3.63-3.3c-3.69,1.34-4.92-5.32-.89-6.93,4.03-1.61,9.59-.73,11.69,3.3,2.1,4.03,1.93,12.73-6.37,18.46-8.3,5.72-15.15,6.45-15.15,10.88v-27.97Z"/>
              </g>
              <rect class="cls-8" x="127.57" y="465.84" width="4.27" height="231.79" transform="translate(259.41 1163.46) rotate(180)"/>
              <rect class="cls-8" x="110.09" y="465.84" width="9.94" height="231.79" transform="translate(230.12 1163.46) rotate(180)"/>
            </g>
            <g>
              <rect class="cls-7" x="79.14" y="691.89" width="146.71" height="26.93" transform="translate(304.99 1410.72) rotate(180)"/>
              <rect class="cls-11" x="79.14" y="718.82" width="140.92" height="6.95" transform="translate(299.2 1444.6) rotate(180)"/>
            </g>
            <g>
              <path class="cls-7" d="m78.96,239.41h139.09v3.07s2.6,3.54,5.43,2.6h3.07v25.99s-4.84-.59-6.85-2.6c0,0,3.31.24,2.36-3.07-.94-3.31-4.49-1.18-7.09,2.36-2.6,3.54-3.78-4.02-7.32,1.42-3.54,5.43-2.6,7.44-7.8,7.44h-120.9v-37.21Z"/>
              <polygon class="cls-11" points="78.96 276.62 78.96 282.17 190.18 282.17 192.72 289.97 197.44 289.97 199.86 276.62 78.96 276.62"/>
              <path class="cls-12" d="m154.44,239.41l2.66-2.36h10.45s-.35-3.37,3.19-5.49c3.54-2.13,19.31-6.38,21.97-12.93,2.66-6.56-4.96-11.16-7.62-6.56-2.66,4.61-9.92-4.61-2.83-11.52,7.09-6.91,20.55-6.38,26.05,3.01,5.49,9.39-1.59,22.68-4.43,24.1,0,0,6.2,2.83,10.1-3.37,3.9-6.2-3.54-7.97,0-14.17,3.54-6.2,19.49-1.95,17.72,11.52-1.77,13.47-13.64,17.78-13.64,17.78h-63.61Z"/>
              <g>
                <polygon class="cls-6" points="103.71 250.81 113.4 250.81 113.4 262.62 108.55 265.22 108.55 262.86 105.36 262.86 105.36 265.22 103.71 265.22 102.06 265.22 102.06 262.86 98.87 262.86 98.87 265.22 94.02 262.62 94.02 250.81 103.71 250.81"/>
                <polygon class="cls-6" points="159.13 250.81 168.82 250.81 168.82 262.62 163.98 265.22 163.98 262.86 160.79 262.86 160.79 265.22 159.13 265.22 157.48 265.22 157.48 262.86 154.29 262.86 154.29 265.22 149.45 262.62 149.45 250.81 159.13 250.81"/>
              </g>
            </g>
            <g>
              <path class="cls-12" d="m219.71,465.84l4.32-3.84h16.99s-.58-5.47,5.18-8.93c5.76-3.46,31.39-10.37,35.71-21.02,4.32-10.66-8.06-18.14-12.38-10.66-4.32,7.49-16.13-7.49-4.61-18.72,11.52-11.23,33.41-10.37,42.33,4.9,8.93,15.26-2.59,36.86-7.2,39.17,0,0,10.08,4.61,16.42-5.47s-5.76-12.96,0-23.04c5.76-10.08,31.68-3.17,28.8,18.72-2.88,21.89-22.18,28.89-22.18,28.89h-103.39Z"/>
              <polygon class="cls-7" points="322.59 465.84 322.59 468.57 331.21 468.57 331.21 512.27 322.59 512.27 322.59 517.94 219.71 517.94 219.71 465.84 322.59 465.84"/>
              <rect class="cls-11" x="219.71" y="517.94" width="95.92" height="7.86" transform="translate(535.33 1043.74) rotate(180)"/>
              <g>
                <polygon class="cls-4" points="248.15 486.33 256.37 486.33 256.37 496.37 252.26 498.57 252.26 496.57 249.55 496.57 249.55 498.57 248.15 498.57 246.74 498.57 246.74 496.57 244.03 496.57 244.03 498.57 239.92 496.37 239.92 486.33 248.15 486.33"/>
                <polygon class="cls-6" points="295.21 486.33 303.44 486.33 303.44 496.37 299.33 498.57 299.33 496.57 296.62 496.57 296.62 498.57 295.21 498.57 293.81 498.57 293.81 496.57 291.1 496.57 291.1 498.57 286.99 496.37 286.99 486.33 295.21 486.33"/>
              </g>
            </g>
            <g>
              <path class="cls-12" d="m322.68,602.67l4.32-3.84h16.99s-.58-5.47,5.18-8.93c5.76-3.46,31.39-10.37,35.71-21.02,4.32-10.66-8.06-18.14-12.38-10.66-4.32,7.49-16.13-7.49-4.61-18.72,11.52-11.23,33.41-10.37,42.33,4.9,8.93,15.26-2.59,36.86-7.2,39.17,0,0,10.08,4.61,16.42-5.47,6.34-10.08-5.76-12.96,0-23.04,5.76-10.08,31.68-3.17,28.8,18.72-2.88,21.89-22.17,28.89-22.17,28.89h-103.39Z"/>
              <polygon class="cls-7" points="425.56 602.67 425.56 605.4 434.19 605.4 434.19 649.11 425.56 649.11 425.56 654.78 322.68 654.78 322.68 602.67 425.56 602.67"/>
              <rect class="cls-11" x="322.68" y="654.78" width="95.92" height="7.86" transform="translate(741.27 1317.41) rotate(180)"/>
              <g>
                <polygon class="cls-6" points="351.12 623.17 359.35 623.17 359.35 633.2 355.23 635.41 355.23 633.4 352.52 633.4 352.52 635.41 351.12 635.41 349.71 635.41 349.71 633.4 347.01 633.4 347.01 635.41 342.89 633.2 342.89 623.17 351.12 623.17"/>
                <polygon class="cls-6" points="398.19 623.17 406.41 623.17 406.41 633.2 402.3 635.41 402.3 633.4 399.59 633.4 399.59 635.41 398.19 635.41 396.78 635.41 396.78 633.4 394.07 633.4 394.07 635.41 389.96 633.2 389.96 623.17 398.19 623.17"/>
              </g>
            </g>
            <g>
              <path class="cls-7" d="m78.96,341.04h184.47v4.07s3.45,4.7,7.21,3.45h4.07v34.46s-6.42-.78-9.09-3.45c0,0,4.39.31,3.13-4.07-1.25-4.39-5.95-1.57-9.4,3.13-3.45,4.7-5.01-5.33-9.71,1.88-4.7,7.21-3.45,9.87-10.34,9.87H78.96v-49.35Z"/>
              <polygon class="cls-11" points="78.96 390.39 78.96 397.75 226.46 397.75 229.83 408.09 236.09 408.09 239.3 390.39 78.96 390.39"/>
              <path class="cls-12" d="m179.07,341.04l3.52-3.13h13.86s-.47-4.46,4.23-7.28c4.7-2.82,25.61-8.46,29.14-17.15,3.52-8.69-6.58-14.8-10.1-8.69-3.52,6.11-13.16-6.11-3.76-15.27,9.4-9.16,27.26-8.46,34.54,3.99,7.28,12.45-2.11,30.08-5.87,31.96,0,0,8.22,3.76,13.39-4.46,5.17-8.22-4.7-10.57,0-18.8,4.7-8.22,25.85-2.58,23.5,15.27-2.35,17.86-18.09,23.58-18.09,23.58h-84.36Z"/>
              <g>
                <polygon class="cls-6" points="103.71 358.51 113.4 358.51 113.4 370.32 108.55 372.92 108.55 370.56 105.36 370.56 105.36 372.92 103.71 372.92 102.06 372.92 102.06 370.56 98.87 370.56 98.87 372.92 94.02 370.32 94.02 358.51 103.71 358.51"/>
                <polygon class="cls-6" points="159.13 358.51 168.82 358.51 168.82 370.32 163.98 372.92 163.98 370.56 160.79 370.56 160.79 372.92 159.13 372.92 157.48 372.92 157.48 370.56 154.29 370.56 154.29 372.92 149.45 370.32 149.45 358.51 159.13 358.51"/>
                <polygon class="cls-4" points="214.15 358.51 223.84 358.51 223.84 370.32 219 372.92 219 370.56 215.81 370.56 215.81 372.92 214.15 372.92 212.5 372.92 212.5 370.56 209.31 370.56 209.31 372.92 204.47 370.32 204.47 358.51 214.15 358.51"/>
              </g>
            </g>
            <g>
              <rect class="cls-7" x="322.68" y="714.74" width="116.14" height="26.93" transform="translate(761.5 1456.41) rotate(180)"/>
              <path class="cls-8" d="m225.05,741.19l3.64,20.79h29.03s-12.21-2.83-14.03-10.39c-1.82-7.56,27.5-15.59,27.5-34.96,0,19.37,29.32,27.4,27.51,34.96-1.82,7.56-14.03,10.39-14.03,10.39h29.03l3.64-20.79h5.34v.48h111.56v6.95h-111.56v4.03h111.56l4.58,8.15h3.9v8.15l-8.53,9.69h-214.48v-37.44h5.34Z"/>
            </g>
            <g>
              <rect class="cls-7" x="219.71" y="536.61" width="111.51" height="19.06" transform="translate(550.92 1092.27) rotate(180)"/>
              <polygon class="cls-11" points="331.21 555.67 331.21 568.26 322.68 576.53 318.22 576.53 314.2 566.1 228.45 566.1 225.85 576.53 219.71 576.53 219.71 555.67 331.21 555.67"/>
            </g>
          </g>
        </g>
        <g>
          <path class="cls-3" d="m363.45,778.21h-30.89s-1.22-6.46-3.51-18.01c-26.86,9.8-44.21,7-55.19-2.54-31.58-27.44-10.28-110.75-10.28-110.75-5.22,4.11-9.92,5.84-14.13,5.6-1.83-.1-3.58-.59-5.23-1.4-34.73-17.02-32.54-181.52-32.54-181.52-12.76,14.22-29.4-35.01-42.67-86.9-.75-2.93-1.5-5.87-2.22-8.81-2.88-11.63-5.57-23.22-8-34.1-3.8-17.09-6.95-32.41-9.11-43.3-.72-3.63-1.33-6.77-1.83-9.32-.93-4.82-1.43-7.55-1.43-7.55,7.95-15.39,7.38-37.62,5.13-54.93-1.93-14.88-5.1-26.11-5.13-26.22-2.93-2.69-5.84-4.98-8.77-6.84-26.44-16.81-50.64-19.29-71.8-14.09-45.1,11.05-21.35,57.11-31.1,73.16v.02s-.02,0-.04.01c-.31.49-.93.32-.93.32-.05-.01-.1-.02-.15-.05-.34-.16-.51-.52-.44-1,6.97-47.71-17.2-64.52,32.68-88.58,33.18-16.01,76.88,8.3,109.96,46.33,3.86,4.45,7.88,10.14,12.01,16.92,8.94,14.69,18.42,34.53,28.18,57.96.62,1.5,1.25,3,1.87,4.52,1.23,3.02,2.48,6.09,3.71,9.22.02.04.04.06.05.1,2.92,7.35,5.86,14.99,8.81,22.89,2.48,6.63,4.97,13.45,7.46,20.41,2.09,5.84,4.2,11.8,6.29,17.85,2.29,6.63,4.59,13.36,6.88,20.2.54,1.62,1.08,3.24,1.62,4.86,7.1,21.31,14.16,43.49,21.07,65.97,1.01,3.31,2.02,6.62,3.03,9.94,1.4,4.55,2.77,9.11,4.14,13.68,2.42,8.04,4.81,16.1,7.18,24.14,1.3,4.41,2.59,8.81,3.86,13.21,30.52,104.89,56.04,205.91,66.45,248.01,3.24,13.15,5.02,20.55,5.02,20.55Z"/>
          <path class="cls-3" d="m68.08,362.05c0,10.42-7.07,19.5-17.52,24.23l-1.25.54c-1.43.59-2.92,1.1-4.46,1.52l-1.25.31c-1.23.3-2.48.54-3.76.71l-1.25.15c-1.3.15-2.6.22-3.93.25h-1.25c-1.38-.02-2.75-.11-4.09-.26l-1.25-.16c-1.28-.19-2.54-.42-3.76-.72l-1.25-.32c-1.55-.42-3.04-.93-4.47-1.53l-1.25-.55c-10.36-4.75-17.36-13.78-17.36-24.15,0-9.35,5.68-17.61,14.39-22.63-4.55-3.94-7.36-9.22-7.36-15.05,0-12.01,11.85-21.77,26.54-21.97v-8.82c-8.65-.2-15.59-5.96-15.59-13.05s6.94-12.85,15.59-13.06h.93l1.91.14c7.75.95,13.68,6.37,13.68,12.92,0,7.09-6.93,12.85-15.59,13.05v8.82c14.7.2,26.54,9.96,26.54,21.97,0,5.83-2.8,11.12-7.35,15.05,8.7,5.02,14.38,13.28,14.38,22.63Z"/>
          <polygon class="cls-2" points="18.61 386.75 18.61 437.34 17.36 437.34 17.36 386.2 18.61 386.75"/>
          <polygon class="cls-2" points="24.33 388.61 24.33 441.09 23.08 441.09 23.08 388.28 24.33 388.61"/>
          <polygon class="cls-2" points="29.34 389.49 29.34 446.09 28.09 446.09 28.09 389.33 29.34 389.49"/>
          <rect class="cls-2" x="33.42" y="389.75" width="1.25" height="69.97"/>
          <polygon class="cls-2" points="39.84 389.35 39.84 446.09 38.59 446.09 38.59 389.5 39.84 389.35"/>
          <polygon class="cls-2" points="44.85 388.33 44.85 441.09 43.6 441.09 43.6 388.64 44.85 388.33"/>
          <polygon class="cls-2" points="50.56 386.28 50.56 437.34 49.31 437.34 49.31 386.81 50.56 386.28"/>
          <path class="cls-2" d="m34.51,250.24v17.22h-.93v-16.9s.62.16.93-.32Z"/>
          <rect class="cls-2" x="33.57" y="293.57" width=".93" height="8.82"/>
        </g>
      </g>
    </g>
  </g>
</svg>