<?xml version="1.0" encoding="UTF-8"?>
<svg id="Layer_2" data-name="Layer 2" xmlns="http://www.w3.org/2000/svg" viewBox="0 0 576.14 798.64">
  <defs>
    <style>
      .cls-1 {
        fill: #16123a;
      }

      .cls-1, .cls-2, .cls-3, .cls-4, .cls-5, .cls-6, .cls-7, .cls-8 {
        stroke-width: 0px;
      }

      .cls-2 {
        fill: #e19f00;
      }

      .cls-3 {
        fill: #1b1541;
      }

      .cls-4 {
        fill: #1b1548;
      }

      .cls-5 {
        fill: #1f184b;
      }

      .cls-6 {
        fill: #120f30;
      }

      .cls-7 {
        fill: #1c1544;
      }

      .cls-8 {
        fill: #211f4e;
      }
    </style>
  </defs>
  <g id="Layer_1-2" data-name="Layer 1">
    <g>
      <g>
        <path class="cls-6" d="m379.84,189.83l28.61-6.08c-4.6-17.46-12.45-35.8-25.65-51.41-18.89,3.39-45.98,9.25-45.98,9.25l37.19-18.46c-5.93-5.5-12.71-10.48-20.46-14.75-47.07-25.93-90.44-20.19-114.72-13.16,73.86-27.14,183.01,9.57,183.01,9.57,0,0-13.17-27.24-49.44-42.62l-34.3,5.11,21.1-9.79c-4.49-1.32-9.23-2.47-14.29-3.36l-23.55,12.71,13.34-14.09c-5.29-.54-10.82-.87-16.69-.86-41.14.07-65.77,14.3-79.9,27.79,1.88-8.64,2.33-19.11-.25-31.48-2.63-12.67-8.21-22.07-14.7-29.04l-13.88,12.76,8.79-17.62c-14.04-11.88-29.81-14.31-29.81-14.31,0,0,20.11,48.71,26.98,85.32-2.97-10.2-8.94-23.37-20.77-38.49-2.9-3.7-6.4-7.13-10.36-10.28l-31.71,11.61,21.4-18.57c-5.89-3.35-12.42-6.17-19.36-8.4l-43.46,14.27,26.58-18.34c-9.01-1.51-18.4-2.07-27.8-1.55l-5.58,11.61.28-11.2c-23.5,2.34-46.67,11.59-63.75,29.88,0,0,114.72,11.8,169.62,55.33-21.68-10.09-71.07-28.22-119.13-11.79-1.22.42-2.41.87-3.61,1.31l1.26,24.37-10.75-20.56c-2.87,1.26-5.68,2.59-8.43,3.98l16.54,23.77-26.36-18.33c-19.75,11.88-35.31,27.24-45.6,44.1l27.97,10.64-32.51-2.45C.43,174.91-2.52,194.96,2.26,213.85c0,0,93.63-89.75,174.54-106.5-16.11,5.24-34.78,16.9-52.92,41.02l90.75-38.36c-72.11,144.62-95.18,496.58-95.18,496.58l45.69-6.81c-34.13-229.02,52.25-470.61,58.89-488.72,46.99,56.79,44.57,182.13,45.73,181.96.71-.11,18.05-29.7,23.31-65.87l-12.13-25.2,13.52,10.56c.16-3.85.15-7.73-.05-11.63l-9.43-5.04,8.76-2.72c-1.88-15.2-7.07-30.35-17.41-43.98-19.66-25.92-33.2-37.41-42.16-42.2,85.75,27.2,179.86,141.94,179.86,141.94,0,0,2.77-24.75-3.15-54.54l-31.04-4.49Z"/>
        <path class="cls-6" d="m206.36,287.58l13.45-7.32c-4.92-8.08-11.59-16.11-20.55-21.98-8.98,4.52-21.7,11.5-21.7,11.5l15.92-14.81c-3.8-1.87-7.94-3.37-12.47-4.35-27.5-5.99-48.41,3.36-59.55,10.52,33.02-24.64,93.29-22.51,93.29-22.51,0,0-10.67-11.71-31.18-14.02l-16.46,7.69,9.13-8.06c-2.45,0-5,.14-7.68.45l-9.92,9.89,4.59-9.06c-2.74.52-5.56,1.18-8.51,2.06-20.64,6.17-30.88,16.99-35.96,25.87-.34-4.62-1.68-9.94-4.82-15.76-3.21-5.97-7.41-9.85-11.71-12.38l-5.06,8.47,1.78-10.16c-8.82-3.87-17.1-2.73-17.1-2.73,0,0,17.36,21.45,26.28,38.8-3.01-4.67-7.98-10.4-16.17-16.22-2.01-1.43-4.28-2.62-6.74-3.61l-14.19,10.56,7.97-12.51c-3.46-.8-7.15-1.24-10.97-1.33l-19.69,13.65,10.61-13.18c-4.75.58-9.54,1.71-14.19,3.37l-1.07,6.66-1.53-5.66c-11.45,4.68-21.7,12.78-27.54,24.51,0,0,59.35-11.19,93.4,2.46-12.39-1.83-39.88-3.56-61.56,11.86-.55.39-1.08.79-1.61,1.19l4.27,12.05-8.47-8.72c-1.26,1.06-2.47,2.15-3.64,3.25l11.85,9.46-15.97-5.26c-8.14,8.91-13.66,18.94-16.31,28.94l15.63,1.17-16.68,3.62c-1.87,10.76-.36,21.26,4.86,30.03,0,0,33.6-59.02,71.72-79.51-7.3,5.03-14.94,13.68-20.44,28.49l39.83-32.8c-14.62,83.35,26.33,263.46,26.33,263.46l21.92-10.24c-51.31-109.87-44-244.02-43.37-254.11,32.06,21.49,49.55,84.77,50.11,84.51.34-.16,4.63-17.6,1.87-36.54l-9.85-10.84,8.36,3.28c-.49-1.95-1.08-3.9-1.76-5.83l-5.49-1.12,3.99-2.67c-3.21-7.35-8.08-14.18-15.3-19.48-13.74-10.07-22.25-13.82-27.46-14.89,47.1.86,111.47,44.41,111.47,44.41,0,0-2.3-12.84-9.72-26.91l-16.25,2.38Z"/>
      </g>
      <g>
        <g>
          <g>
            <polygon class="cls-5" points="427.17 214.17 342.65 214.17 342.65 259.41 308.7 259.41 308.7 417.67 297.3 417.67 297.3 450.45 291.98 478.88 291.98 485.84 286.43 485.84 286.43 537.94 286.43 545.8 183.43 545.8 183.43 682.63 71.95 682.63 71.95 798.64 183.43 798.64 183.46 798.64 286.43 798.64 427.88 798.64 427.17 214.17"/>
            <g>
              <rect class="cls-4" x="282.29" y="545.8" width="4.13" height="252.84"/>
              <rect class="cls-4" x="179.17" y="682.63" width="4.25" height="116"/>
            </g>
          </g>
          <g>
            <g>
              <path class="cls-7" d="m421.24,71.71c-2.57,7.8-13.02,7.62-10.54,12.76,2.48,5.14,8.4,3.54,8.4,6.02h-13.37s-4.78-.18-4.78,4.08,4.43,3.54,4.43,3.54c0,0-3.54,2.13-1.77,7.09,0,0,5.44,1.98,8.83,8.17,0,.01,0,.03.02.04-3.56-5.87-9.98-9.8-17.34-9.8-11.2,0-20.29,9.08-20.29,20.29,0,8.4,5.11,15.61,12.38,18.69h0s6.3,3.19,4.88,10.1c-1.3,6.35-8.08,4.12-11.05-4.71-.14-.85-.37-1.68-.7-2.46,0,0,0,0,0-.01h0c-1.71-4.11-5.77-7.01-10.51-7.01-6.28,0-11.38,5.09-11.38,11.38,0,3.34,1.45,6.34,3.74,8.42,0,0,4.83,5.19,0,7.5-4.83,2.3-10.5,3.37-15.11-3.54-4.61-6.91-9.04-4.82-10.28-.99,0,0-3.54-3.44-9.21-3.08-5.67.35-8.68-10.45,0-12.67,0,0-4.78-5.76-13.29-1.33-8.5,4.43-6.38,14.49,0,17.08,6.38,2.59,9.21,4.18,9.21,9.67l91.07.35v4.96l9.75,4.61v4.08h3.54V62.86s-4.08,1.06-6.64,8.86Z"/>
              <path class="cls-8" d="m414.59,171.29l-91.07-.35s-5.67,1.06-5.67-2.13c0,0,.71-1.86-1.86-1.86s-2.57,4.87-2.57,10.37v16.66s2.83-6.91,9.92-6.91,10.1,13.11,10.1,13.11c0,0,7.26-.35,9.21,5.32h84.52l.71-20.55h-3.54v-4.08l-9.75-4.61v-4.96Z"/>
              <g>
                <polygon class="cls-3" points="402.42 180.03 392.74 180.03 392.74 191.84 397.58 194.44 397.58 192.08 400.77 192.08 400.77 194.44 402.42 194.44 404.08 194.44 404.08 192.08 407.27 192.08 407.27 194.44 412.11 191.84 412.11 180.03 402.42 180.03"/>
                <polygon class="cls-3" points="371.53 180.03 361.84 180.03 361.84 191.84 366.68 194.44 366.68 192.08 369.87 192.08 369.87 194.44 371.53 194.44 373.18 194.44 373.18 192.08 376.37 192.08 376.37 194.44 381.21 191.84 381.21 180.03 371.53 180.03"/>
              </g>
              <polygon class="cls-7" points="427.17 205.49 342.66 205.49 342.66 219.49 347.97 219.49 352.22 214.17 427.17 214.17 427.17 205.49"/>
            </g>
            <g>
              <rect class="cls-8" x="286.43" y="451.95" width="140.74" height="26.93"/>
              <rect class="cls-7" x="291.98" y="478.88" width="135.19" height="6.95"/>
            </g>
            <g>
              <g>
                <path class="cls-7" d="m374.3,491.08s-2.5-.32-5.56,2.42c-3.06,2.74-7.58,4.84-8.79,3.14s-.06-4.65,3.63-3.3c3.69,1.34,4.92-5.32.89-6.93-4.03-1.61-9.59-.73-11.69,3.3-2.1,4.03-1.93,12.73,6.37,18.46,8.3,5.72,15.15,6.45,15.15,10.88v-27.97Z"/>
                <path class="cls-7" d="m374.3,516.12s-2.5-.32-5.56,2.42c-3.06,2.74-7.58,4.84-8.79,3.14s-.06-4.65,3.63-3.3c3.69,1.34,4.92-5.32.89-6.93-4.03-1.61-9.59-.73-11.69,3.3-2.1,4.03-1.93,12.73,6.37,18.46,8.3,5.72,15.15,6.45,15.15,10.88v-27.97Z"/>
                <path class="cls-7" d="m374.3,539.36s-2.5-.32-5.56,2.42c-3.06,2.74-7.58,4.84-8.79,3.14-1.21-1.69-.06-4.65,3.63-3.3,3.69,1.34,4.92-5.32.89-6.93-4.03-1.61-9.59-.73-11.69,3.3-2.1,4.03-1.93,12.73,6.37,18.46,8.3,5.72,15.15,6.45,15.15,10.88v-27.97Z"/>
                <path class="cls-7" d="m374.3,564.4s-2.5-.32-5.56,2.42c-3.06,2.74-7.58,4.84-8.79,3.14-1.21-1.69-.06-4.65,3.63-3.3s4.92-5.32.89-6.93c-4.03-1.61-9.59-.73-11.69,3.3-2.1,4.03-1.93,12.73,6.37,18.46,8.3,5.72,15.15,6.45,15.15,10.88v-27.97Z"/>
                <path class="cls-7" d="m374.3,589.76s-2.5-.32-5.56,2.42c-3.06,2.74-7.58,4.84-8.79,3.14s-.06-4.65,3.63-3.3c3.69,1.34,4.92-5.32.89-6.93-4.03-1.61-9.59-.73-11.69,3.3-2.1,4.03-1.93,12.73,6.37,18.46,8.3,5.72,15.15,6.45,15.15,10.88v-27.97Z"/>
                <path class="cls-7" d="m374.3,614.8s-2.5-.32-5.56,2.42c-3.06,2.74-7.58,4.84-8.79,3.14s-.06-4.65,3.63-3.3c3.69,1.34,4.92-5.32.89-6.93-4.03-1.61-9.59-.73-11.69,3.3-2.1,4.03-1.93,12.73,6.37,18.46,8.3,5.72,15.15,6.45,15.15,10.88v-27.97Z"/>
                <path class="cls-7" d="m374.3,639.1s-2.5-.32-5.56,2.42c-3.06,2.74-7.58,4.84-8.79,3.14s-.06-4.65,3.63-3.3c3.69,1.34,4.92-5.32.89-6.93-4.03-1.61-9.59-.73-11.69,3.3-2.1,4.03-1.93,12.73,6.37,18.46,8.3,5.72,15.15,6.45,15.15,10.88v-27.97Z"/>
                <path class="cls-7" d="m374.3,664.14s-2.5-.32-5.56,2.42c-3.06,2.74-7.58,4.84-8.79,3.14-1.21-1.69-.06-4.65,3.63-3.3,3.69,1.34,4.92-5.32.89-6.93-4.03-1.61-9.59-.73-11.69,3.3-2.1,4.03-1.93,12.73,6.37,18.46,8.3,5.72,15.15,6.45,15.15,10.88v-27.97Z"/>
                <path class="cls-7" d="m374.3,689.66s-2.5-.32-5.56,2.42c-3.06,2.74-7.58,4.84-8.79,3.14s-.06-4.65,3.63-3.3c3.69,1.34,4.92-5.32.89-6.93-4.03-1.61-9.59-.73-11.69,3.3-2.1,4.03-1.93,12.73,6.37,18.46,8.3,5.72,15.15,6.45,15.15,10.88v-27.97Z"/>
              </g>
              <rect class="cls-7" x="374.3" y="485.84" width="4.27" height="231.79"/>
              <rect class="cls-7" x="386.11" y="485.84" width="9.94" height="231.79"/>
            </g>
            <g>
              <rect class="cls-8" x="280.29" y="711.89" width="146.71" height="26.93"/>
              <rect class="cls-7" x="286.07" y="738.82" width="140.92" height="6.95"/>
            </g>
            <g>
              <path class="cls-8" d="m427.17,259.41h-139.09v3.07s-2.6,3.54-5.43,2.6h-3.07v25.99s4.84-.59,6.85-2.6c0,0-3.31.24-2.36-3.07.94-3.31,4.49-1.18,7.09,2.36,2.6,3.54,3.78-4.02,7.32,1.42,3.54,5.43,2.6,7.44,7.8,7.44h120.9v-37.21Z"/>
              <polygon class="cls-7" points="427.17 296.62 427.17 302.17 315.96 302.17 313.42 309.97 308.7 309.97 306.27 296.62 427.17 296.62"/>
              <path class="cls-7" d="m351.69,259.41l-2.66-2.36h-10.45s.35-3.37-3.19-5.49c-3.54-2.13-19.31-6.38-21.97-12.93-2.66-6.56,4.96-11.16,7.62-6.56,2.66,4.61,9.92-4.61,2.83-11.52-7.09-6.91-20.55-6.38-26.05,3.01-5.49,9.39,1.59,22.68,4.43,24.1,0,0-6.2,2.83-10.1-3.37-3.9-6.2,3.54-7.97,0-14.17-3.54-6.2-19.49-1.95-17.72,11.52,1.77,13.47,13.64,17.78,13.64,17.78h63.61Z"/>
              <g>
                <polygon class="cls-3" points="402.42 270.81 392.74 270.81 392.74 282.62 397.58 285.22 397.58 282.86 400.77 282.86 400.77 285.22 402.42 285.22 404.08 285.22 404.08 282.86 407.27 282.86 407.27 285.22 412.11 282.62 412.11 270.81 402.42 270.81"/>
                <polygon class="cls-3" points="347 270.81 337.32 270.81 337.32 282.62 342.16 285.22 342.16 282.86 345.35 282.86 345.35 285.22 347 285.22 348.66 285.22 348.66 282.86 351.84 282.86 351.84 285.22 356.69 282.62 356.69 270.81 347 270.81"/>
              </g>
            </g>
            <g>
              <path class="cls-7" d="m286.43,485.84l-4.32-3.84h-16.99s.58-5.47-5.18-8.93c-5.76-3.46-31.39-10.37-35.71-21.02-4.32-10.66,8.06-18.14,12.38-10.66,4.32,7.49,16.13-7.49,4.61-18.72-11.52-11.23-33.41-10.37-42.33,4.9-8.93,15.26,2.59,36.86,7.2,39.17,0,0-10.08,4.61-16.42-5.47s5.76-12.96,0-23.04c-5.76-10.08-31.68-3.17-28.8,18.72,2.88,21.89,22.18,28.89,22.18,28.89h103.39Z"/>
              <polygon class="cls-8" points="183.54 485.84 183.54 488.57 174.92 488.57 174.92 532.27 183.54 532.27 183.54 537.94 286.43 537.94 286.43 485.84 183.54 485.84"/>
              <rect class="cls-7" x="190.51" y="537.94" width="95.92" height="7.86"/>
              <g>
                <polygon class="cls-3" points="257.99 506.33 249.76 506.33 249.76 516.37 253.88 518.57 253.88 516.57 256.58 516.57 256.58 518.57 257.99 518.57 259.39 518.57 259.39 516.57 262.1 516.57 262.1 518.57 266.21 516.37 266.21 506.33 257.99 506.33"/>
                <polygon class="cls-3" points="210.92 506.33 202.7 506.33 202.7 516.37 206.81 518.57 206.81 516.57 209.52 516.57 209.52 518.57 210.92 518.57 212.33 518.57 212.33 516.57 215.03 516.57 215.03 518.57 219.15 516.37 219.15 506.33 210.92 506.33"/>
              </g>
            </g>
            <g>
              <path class="cls-7" d="m183.46,622.67l-4.32-3.84h-16.99s.58-5.47-5.18-8.93c-5.76-3.46-31.39-10.37-35.71-21.02s8.06-18.14,12.38-10.66,16.13-7.49,4.61-18.72c-11.52-11.23-33.41-10.37-42.33,4.9-8.93,15.26,2.59,36.86,7.2,39.17,0,0-10.08,4.61-16.42-5.47-6.34-10.08,5.76-12.96,0-23.04-5.76-10.08-31.68-3.17-28.8,18.72,2.88,21.89,22.17,28.89,22.17,28.89h103.39Z"/>
              <polygon class="cls-8" points="80.57 622.67 80.57 625.4 71.95 625.4 71.95 669.11 80.57 669.11 80.57 674.78 183.46 674.78 183.46 622.67 80.57 622.67"/>
              <rect class="cls-7" x="87.54" y="674.78" width="95.92" height="7.86"/>
              <g>
                <polygon class="cls-3" points="155.02 643.17 146.79 643.17 146.79 653.2 150.9 655.41 150.9 653.4 153.61 653.4 153.61 655.41 155.02 655.41 156.42 655.41 156.42 653.4 159.13 653.4 159.13 655.41 163.24 653.2 163.24 643.17 155.02 643.17"/>
                <polygon class="cls-3" points="107.95 643.17 99.72 643.17 99.72 653.2 103.84 655.41 103.84 653.4 106.54 653.4 106.54 655.41 107.95 655.41 109.35 655.41 109.35 653.4 112.06 653.4 112.06 655.41 116.17 653.2 116.17 643.17 107.95 643.17"/>
              </g>
            </g>
            <g>
              <path class="cls-8" d="m427.17,361.04h-184.47v4.07s-3.45,4.7-7.21,3.45h-4.07v34.46s6.42-.78,9.09-3.45c0,0-4.39.31-3.13-4.07,1.25-4.39,5.95-1.57,9.4,3.13,3.45,4.7,5.01-5.33,9.71,1.88,4.7,7.21,3.45,9.87,10.34,9.87h160.34v-49.35Z"/>
              <polygon class="cls-7" points="427.17 410.39 427.17 417.75 279.68 417.75 276.31 428.09 270.04 428.09 266.83 410.39 427.17 410.39"/>
              <path class="cls-7" d="m327.07,361.04l-3.52-3.13h-13.86s.47-4.46-4.23-7.28c-4.7-2.82-25.61-8.46-29.14-17.15-3.52-8.69,6.58-14.8,10.1-8.69,3.52,6.11,13.16-6.11,3.76-15.27-9.4-9.16-27.26-8.46-34.54,3.99-7.28,12.45,2.11,30.08,5.87,31.96,0,0-8.22,3.76-13.39-4.46-5.17-8.22,4.7-10.57,0-18.8-4.7-8.22-25.85-2.58-23.5,15.27,2.35,17.86,18.09,23.58,18.09,23.58h84.36Z"/>
              <g>
                <polygon class="cls-3" points="402.42 378.51 392.74 378.51 392.74 390.32 397.58 392.92 397.58 390.56 400.77 390.56 400.77 392.92 402.42 392.92 404.08 392.92 404.08 390.56 407.27 390.56 407.27 392.92 412.11 390.32 412.11 378.51 402.42 378.51"/>
                <polygon class="cls-3" points="347 378.51 337.32 378.51 337.32 390.32 342.16 392.92 342.16 390.56 345.35 390.56 345.35 392.92 347 392.92 348.66 392.92 348.66 390.56 351.84 390.56 351.84 392.92 356.69 390.32 356.69 378.51 347 378.51"/>
                <polygon class="cls-3" points="291.98 378.51 282.29 378.51 282.29 390.32 287.14 392.92 287.14 390.56 290.33 390.56 290.33 392.92 291.98 392.92 293.63 392.92 293.63 390.56 296.82 390.56 296.82 392.92 301.67 390.32 301.67 378.51 291.98 378.51"/>
              </g>
            </g>
            <g>
              <rect class="cls-8" x="67.31" y="734.74" width="116.14" height="26.93"/>
              <path class="cls-7" d="m281.09,761.19l-3.64,20.79h-29.03s12.21-2.83,14.03-10.39c1.82-7.56-27.5-15.59-27.5-34.96,0,19.37-29.32,27.4-27.51,34.96,1.82,7.56,14.03,10.39,14.03,10.39h-29.03l-3.64-20.79h-5.34v.48h-111.56v6.95h111.56v4.03h-111.56l-4.58,8.15h-3.9v8.15l8.53,9.69h214.48v-37.44h-5.34Z"/>
            </g>
            <g>
              <rect class="cls-8" x="174.92" y="556.61" width="111.51" height="19.06"/>
              <polygon class="cls-7" points="174.92 575.67 174.92 588.26 183.46 596.53 187.92 596.53 191.93 586.1 277.69 586.1 280.29 596.53 286.43 596.53 286.43 575.67 174.92 575.67"/>
            </g>
          </g>
        </g>
        <g>
          <path class="cls-1" d="m212.68,798.21h30.89s1.22-6.46,3.51-18.01c26.86,9.8,44.21,7,55.19-2.54,31.58-27.44,10.28-110.75,10.28-110.75,5.22,4.11,9.92,5.84,14.13,5.6,1.83-.1,3.58-.59,5.23-1.4,34.73-17.02,32.54-181.52,32.54-181.52,12.76,14.22,29.4-35.01,42.67-86.9.75-2.93,1.5-5.87,2.22-8.81,2.88-11.63,5.57-23.22,8-34.1,3.8-17.09,6.95-32.41,9.11-43.3.72-3.63,1.33-6.77,1.83-9.32.93-4.82,1.43-7.55,1.43-7.55-7.95-15.39-7.38-37.62-5.13-54.93,1.93-14.88,5.1-26.11,5.13-26.22,2.93-2.69,5.84-4.98,8.77-6.84,26.44-16.81,50.64-19.29,71.8-14.09,45.1,11.05,21.35,57.11,31.1,73.16v.02s.02,0,.04.01c.31.49.93.32.93.32.05-.01.1-.02.15-.05.34-.16.51-.52.44-1-6.97-47.71,17.2-64.52-32.68-88.58-33.18-16.01-76.88,8.3-109.96,46.33-3.86,4.45-7.88,10.14-12.01,16.92-8.94,14.69-18.42,34.53-28.18,57.96-.62,1.5-1.25,3-1.87,4.52-1.23,3.02-2.48,6.09-3.71,9.22-.02.04-.04.06-.05.1-2.92,7.35-5.86,14.99-8.81,22.89-2.48,6.63-4.97,13.45-7.46,20.41-2.09,5.84-4.2,11.8-6.29,17.85-2.29,6.63-4.59,13.36-6.88,20.2-.54,1.62-1.08,3.24-1.62,4.86-7.1,21.31-14.16,43.49-21.07,65.97-1.01,3.31-2.02,6.62-3.03,9.94-1.4,4.55-2.77,9.11-4.14,13.68-2.42,8.04-4.81,16.1-7.18,24.14-1.3,4.41-2.59,8.81-3.86,13.21-30.52,104.89-56.04,205.91-66.45,248.01-3.24,13.15-5.02,20.55-5.02,20.55Z"/>
          <path class="cls-1" d="m508.06,382.05c0,10.42,7.07,19.5,17.52,24.23l1.25.54c1.43.59,2.92,1.1,4.46,1.52l1.25.31c1.23.3,2.48.54,3.76.71l1.25.15c1.3.15,2.6.22,3.93.25h1.25c1.38-.02,2.75-.11,4.09-.26l1.25-.16c1.28-.19,2.54-.42,3.76-.72l1.25-.32c1.55-.42,3.04-.93,4.47-1.53l1.25-.55c10.36-4.75,17.36-13.78,17.36-24.15,0-9.35-5.68-17.61-14.39-22.63,4.55-3.94,7.36-9.22,7.36-15.05,0-12.01-11.85-21.77-26.54-21.97v-8.82c8.65-.2,15.59-5.96,15.59-13.05s-6.94-12.85-15.59-13.06h-.93l-1.91.14c-7.75.95-13.68,6.37-13.68,12.92,0,7.09,6.93,12.85,15.59,13.05v8.82c-14.7.2-26.54,9.96-26.54,21.97,0,5.83,2.8,11.12,7.35,15.05-8.7,5.02-14.38,13.28-14.38,22.63Z"/>
          <polygon class="cls-2" points="557.53 406.75 557.53 457.34 558.78 457.34 558.78 406.2 557.53 406.75"/>
          <polygon class="cls-2" points="551.81 408.61 551.81 461.09 553.06 461.09 553.06 408.28 551.81 408.61"/>
          <polygon class="cls-2" points="546.8 409.49 546.8 466.09 548.05 466.09 548.05 409.33 546.8 409.49"/>
          <rect class="cls-2" x="541.47" y="409.75" width="1.25" height="69.97"/>
          <polygon class="cls-2" points="536.3 409.35 536.3 466.09 537.54 466.09 537.54 409.5 536.3 409.35"/>
          <polygon class="cls-2" points="531.29 408.33 531.29 461.09 532.53 461.09 532.53 408.64 531.29 408.33"/>
          <polygon class="cls-2" points="525.58 406.28 525.58 457.34 526.82 457.34 526.82 406.81 525.58 406.28"/>
          <path class="cls-2" d="m541.63,270.24v17.22h.93v-16.9s-.62.16-.93-.32Z"/>
          <rect class="cls-2" x="541.63" y="313.57" width=".93" height="8.82"/>
        </g>
      </g>
    </g>
  </g>
</svg>